name Walk4.mot
datacolumns 19
datarows 20
range 4.23300000 4.25200000
endheader

                time	   L_ground_force_vx	   L_ground_force_vy	   L_ground_force_vz	   L_ground_force_px	   L_ground_force_py	   L_ground_force_pz	   R_ground_force_vx	   R_ground_force_vy	   R_ground_force_vz	   R_ground_force_px	   R_ground_force_py	   R_ground_force_pz	   L_ground_torque_x	   L_ground_torque_y	   L_ground_torque_z	   R_ground_torque_x	   R_ground_torque_y	   R_ground_torque_z	
          4.23300000	          0.01680904	          0.07866960	          0.00512717	         -0.00020144	          0.00000000	         -0.00003480	         -6.82828568	        875.17654256	        -62.95663559	          0.25215333	          0.00000000	          0.17099037	          0.00000000	          0.00011608	          0.00000000	          0.00000000	          9.63516445	          0.00000000	
          4.23400000	          0.01483666	          0.07241115	          0.00492500	         -0.00019595	          0.00000000	         -0.00003415	         -6.54335247	        875.69564919	        -62.86817470	          0.25232075	          0.00000000	          0.17098940	          0.00000000	          0.00011782	          0.00000000	          0.00000000	          9.58613618	          0.00000000	
          4.23500000	          0.01297592	          0.06641119	          0.00472141	         -0.00019018	          0.00000000	         -0.00003344	         -6.25731907	        876.23949466	        -62.78656167	          0.25248851	          0.00000000	          0.17098784	          0.00000000	          0.00011896	          0.00000000	          0.00000000	          9.53732742	          0.00000000	
          4.23600000	          0.01122435	          0.06067042	          0.00451729	         -0.00018419	          0.00000000	         -0.00003265	         -5.97009607	        876.80759485	        -62.71195836	          0.25265664	          0.00000000	          0.17098573	          0.00000000	          0.00011955	          0.00000000	          0.00000000	          9.48872073	          0.00000000	
          4.23700000	          0.00957929	          0.05518850	          0.00431346	         -0.00017801	          0.00000000	         -0.00003181	         -5.68160118	        877.39944052	        -62.64450749	          0.25282518	          0.00000000	          0.17098310	          0.00000000	          0.00011965	          0.00000000	          0.00000000	          9.44029876	          0.00000000	
          4.23800000	          0.00803791	          0.04996413	          0.00411065	         -0.00017168	          0.00000000	         -0.00003092	         -5.39175969	        878.01449886	        -62.58433213	          0.25299418	          0.00000000	          0.17097999	          0.00000000	          0.00011928	          0.00000000	          0.00000000	          9.39204429	          0.00000000	
          4.23900000	          0.00659720	          0.04499515	          0.00390956	         -0.00016524	          0.00000000	         -0.00002999	         -5.10050481	        878.65221403	        -62.53153468	          0.25316365	          0.00000000	          0.17097644	          0.00000000	          0.00011849	          0.00000000	          0.00000000	          9.34394022	          0.00000000	
          4.24000000	          0.00525406	          0.04027863	          0.00371079	         -0.00015873	          0.00000000	         -0.00002903	         -4.80777786	        879.31200654	        -62.48619583	          0.25333364	          0.00000000	          0.17097249	          0.00000000	          0.00011733	          0.00000000	          0.00000000	          9.29596954	          0.00000000	
          4.24100000	          0.00400527	          0.03581093	          0.00351490	         -0.00015217	          0.00000000	         -0.00002804	         -4.51352818	        879.99327188	        -62.44837393	          0.25350415	          0.00000000	          0.17096817	          0.00000000	          0.00011581	          0.00000000	          0.00000000	          9.24811521	          0.00000000	
          4.24200000	          0.00284752	          0.03158777	          0.00332238	         -0.00014559	          0.00000000	         -0.00002702	         -4.21771294	        880.69537918	        -62.41810520	          0.25367522	          0.00000000	          0.17096354	          0.00000000	          0.00011399	          0.00000000	          0.00000000	          9.20036015	          0.00000000	
          4.24300000	          0.00177745	          0.02760431	          0.00313368	         -0.00013902	          0.00000000	         -0.00002599	         -3.92029664	        881.41767113	        -62.39540469	          0.25384687	          0.00000000	          0.17095862	          0.00000000	          0.00011190	          0.00000000	          0.00000000	          9.15268710	          0.00000000	
          4.24400000	          0.00079164	          0.02385524	          0.00294918	         -0.00013248	          0.00000000	         -0.00002495	         -3.62125070	        882.15946544	        -62.38026768	          0.25401911	          0.00000000	          0.17095346	          0.00000000	          0.00010956	          0.00000000	          0.00000000	          9.10507864	          0.00000000	
          4.24500000	         -0.00011334	          0.02033478	          0.00276922	         -0.00012600	          0.00000000	         -0.00002391	         -3.32055295	        882.92005767	        -62.37267112	          0.25419196	          0.00000000	          0.17094807	          0.00000000	          0.00010700	          0.00000000	          0.00000000	          9.05751720	          0.00000000	
          4.24600000	         -0.00094095	          0.01703681	          0.00259410	         -0.00011960	          0.00000000	         -0.00002286	         -3.01818725	        883.69872459	        -62.37257490	          0.25436545	          0.00000000	          0.17094251	          0.00000000	          0.00010426	          0.00000000	          0.00000000	          9.00998524	          0.00000000	
          4.24700000	         -0.00169464	          0.01395486	          0.00242407	         -0.00011328	          0.00000000	         -0.00002181	         -2.71414305	        884.49472714	        -62.37992289	          0.25453960	          0.00000000	          0.17093679	          0.00000000	          0.00010135	          0.00000000	          0.00000000	          8.96246546	          0.00000000	
          4.24800000	         -0.00237784	          0.01108222	          0.00225933	         -0.00010708	          0.00000000	         -0.00002077	         -2.40841487	        885.30731251	        -62.39464362	          0.25471443	          0.00000000	          0.17093096	          0.00000000	          0.00009831	          0.00000000	          0.00000000	          8.91494096	          0.00000000	
          4.24900000	         -0.00299397	          0.00841195	          0.00210006	         -0.00010100	          0.00000000	         -0.00001975	         -2.10100170	        886.13571520	        -62.41665088	          0.25488995	          0.00000000	          0.17092506	          0.00000000	          0.00009516	          0.00000000	          0.00000000	          8.86739541	          0.00000000	
          4.25000000	         -0.00354640	          0.00593694	          0.00194640	         -0.00009505	          0.00000000	         -0.00001873	         -1.79190645	        886.97915742	        -62.44584396	          0.25506618	          0.00000000	          0.17091910	          0.00000000	          0.00009192	          0.00000000	          0.00000000	          8.81981305	          0.00000000	
          4.25100000	         -0.00403845	          0.00364992	          0.00179845	         -0.00008925	          0.00000000	         -0.00001773	         -1.48113571	        887.83684922	        -62.48210791	          0.25524315	          0.00000000	          0.17091314	          0.00000000	          0.00008860	          0.00000000	          0.00000000	          8.77217859	          0.00000000	
          4.25200000	         -0.00447341	          0.00154356	          0.00165628	         -0.00008361	          0.00000000	         -0.00001675	         -1.16869989	        888.70798891	        -62.52531359	          0.25542085	          0.00000000	          0.17090720	          0.00000000	          0.00008523	          0.00000000	          0.00000000	          8.72447719	          0.00000000	
